<svg xmlns="http://www.w3.org/2000/svg" viewBox="0 0 1200 760" role="img" aria-labelledby="title desc">
  <title id="title">Feline Inspiration Covenant Preview</title>
  <desc id="desc">Preview illustration of the museum-style cat fortune page.</desc>
  <defs>
    <linearGradient id="bg" x1="0" y1="0" x2="1" y2="1">
      <stop offset="0%" stop-color="#d8ccbc" />
      <stop offset="100%" stop-color="#e9e0d3" />
    </linearGradient>
    <linearGradient id="paper" x1="0" y1="0" x2="1" y2="1">
      <stop offset="0%" stop-color="#f7f0e6" />
      <stop offset="100%" stop-color="#efe4d6" />
    </linearGradient>
    <linearGradient id="button" x1="0" y1="0" x2="1" y2="1">
      <stop offset="0%" stop-color="#7f5a38" />
      <stop offset="100%" stop-color="#5a3e25" />
    </linearGradient>
  </defs>

  <rect width="1200" height="760" fill="url(#bg)" />
  <g opacity="0.08" stroke="#7a6552">
    <path d="M0 40h1200M0 120h1200M0 200h1200M0 280h1200M0 360h1200M0 440h1200M0 520h1200M0 600h1200M0 680h1200" />
    <path d="M40 0v760M120 0v760M200 0v760M280 0v760M360 0v760M440 0v760M520 0v760M600 0v760M680 0v760M760 0v760M840 0v760M920 0v760M1000 0v760M1080 0v760M1160 0v760" />
  </g>

  <path d="M0 0h170l58 98-92 42L0 112z" fill="#b79072" opacity="0.65" />
  <path d="M920 650h280v110H850z" fill="#b79072" opacity="0.5" />

  <g transform="translate(85 55)">
    <rect width="1030" height="650" fill="url(#paper)" stroke="#c9baa6" />
    <rect x="16" y="16" width="998" height="618" fill="none" stroke="#d9ccb8" />

    <text x="515" y="92" text-anchor="middle" fill="#7a6552" font-family="Georgia, serif" font-size="18" letter-spacing="4">SPECIAL EXHIBITION · INTERACTIVE FORTUNE DEVICE</text>
    <text x="515" y="180" text-anchor="middle" fill="#4a3422" font-family="Georgia, serif" font-size="58" font-weight="700">The Museum of Feline Inspiration</text>
    <text x="515" y="240" text-anchor="middle" fill="#7a6552" font-family="Arial, sans-serif" font-size="24">Press the ceremonial box to reveal the label chosen for you today.</text>

    <g transform="translate(370 300)">
      <ellipse cx="145" cy="226" rx="120" ry="26" fill="#8b7257" opacity="0.12" />
      <path d="M64 88h162l-18 28H83z" fill="#efe4d3" stroke="#5a3e25" stroke-width="3" />
      <rect x="42" y="109" width="206" height="108" rx="16" fill="#eadcc9" stroke="#5a3e25" stroke-width="4" />
      <rect x="66" y="70" width="158" height="30" rx="12" fill="#f7f0e7" stroke="#5a3e25" stroke-width="4" />
      <path d="M81 70c14-18 34-29 64-31M147 39c28 1 49 12 64 31" fill="none" stroke="#5a3e25" stroke-width="4" stroke-linecap="round" />
      <rect x="140" y="73" width="18" height="144" rx="8" fill="#e8d8c2" stroke="#5a3e25" stroke-width="3" />
      <rect x="98" y="135" width="94" height="38" rx="10" fill="#f8f3ec" stroke="#5a3e25" stroke-width="3" />
      <path d="M120 153c7-7 14-11 25-11 12 0 18 4 25 11" fill="none" stroke="#5a3e25" stroke-width="3" stroke-linecap="round" />
      <circle cx="134" cy="152" r="3.5" fill="#5a3e25" />
      <circle cx="156" cy="152" r="3.5" fill="#5a3e25" />
      <path d="M134 166c6 5 15 5 22 0" fill="none" stroke="#5a3e25" stroke-width="3" stroke-linecap="round" />
    </g>

    <g transform="translate(408 570)">
      <rect width="214" height="52" rx="26" fill="url(#button)" />
      <text x="107" y="33" text-anchor="middle" fill="#ffffff" font-family="Arial, sans-serif" font-size="22" font-weight="700" letter-spacing="1.5">OPEN THE DRAW</text>
    </g>
  </g>
</svg>
